<?xml version="1.0" encoding="utf-8"?>
<!-- Generator: Adobe Illustrator 23.0.1, SVG Export Plug-In . SVG Version: 6.00 Build 0)  -->
<svg version="1.1" id="Layer_1" xmlns="http://www.w3.org/2000/svg" xmlns:xlink="http://www.w3.org/1999/xlink" x="0px" y="0px"
	 viewBox="0 0 512 512" style="enable-background:new 0 0 512 512;" xml:space="preserve">
<style type="text/css">
	.st0{fill:#8abd10;}
</style>
<path class="st0" d="M322.4,153.4l-169,169c-10,10-10,26.2,0,36.2c10,10,26.2,10,36.2,0l169-169c10-10,10-26.2,0-36.2
	C348.6,143.4,332.4,143.4,322.4,153.4z M346.5,177.6l-169,169c-3.3,3.3-8.7,3.3-12.1,0c-3.3-3.3-3.3-8.7,0-12.1l169-169
	c3.3-3.3,8.7-3.3,12.1,0C349.8,168.8,349.8,174.2,346.5,177.6L346.5,177.6z"/>
<path class="st0" d="M196.3,238.9c23.6,0,42.7-19.1,42.7-42.7c0-23.6-19.1-42.7-42.7-42.7s-42.7,19.1-42.7,42.7
	c0,11.3,4.5,22.2,12.5,30.2C174.1,234.5,184.9,239,196.3,238.9z M178.2,178.2c10-10,26.2-10,36.2,0s10,26.2,0,36.2
	c-10.1,9.7-26.1,9.7-36.2,0C168.2,204.4,168.2,188.2,178.2,178.2C178.2,178.2,178.2,178.2,178.2,178.2z"/>
<path class="st0" d="M315.7,273.1c-23.6,0-42.7,19.1-42.7,42.7s19.1,42.7,42.7,42.7c23.6,0,42.7-19.1,42.7-42.7
	c0-11.3-4.5-22.2-12.5-30.2C337.9,277.5,327.1,273,315.7,273.1z M333.8,333.8c-10.1,9.7-26.1,9.7-36.2,0c-10-10-10-26.2,0-36.2
	c10-10,26.2-10,36.2,0S343.8,323.8,333.8,333.8C333.8,333.8,333.8,333.8,333.8,333.8z"/>
<path class="st0" d="M511.6,176.9c-0.7-2.2-2.2-3.9-4.3-5l-75.3-38l-14.7-79.7c-0.8-4.5-5-7.5-9.5-6.9l-84.6,11.4L261.8,2.3
	c-3.3-3-8.3-3-11.6,0l-61.4,56.5l-84.6-11.4c-4.5-0.6-8.7,2.4-9.5,6.9L80,133.9l-75.3,38c-4.2,2.1-5.9,7.3-3.8,11.5c0,0,0,0,0,0.1
	L38.3,256L0.9,328.5c-2.2,4.2-0.5,9.3,3.7,11.5c0,0,0,0,0.1,0L80,378l14.7,79.7c0.8,4.5,5,7.6,9.5,6.9l84.6-11.4l61.4,56.5
	c3.3,3,8.3,3,11.6,0l61.4-56.5l84.6,11.4c4.5,0.6,8.7-2.4,9.5-6.9L432,378l75.3-38c4.2-2.1,5.9-7.3,3.8-11.5c0,0,0,0,0-0.1
	L473.8,256l37.3-72.5C512.1,181.4,512.3,179.1,511.6,176.9z M456.5,252.1c-1.3,2.4-1.3,5.4,0,7.8l35.4,68.8l-71.4,36
	c-2.4,1.2-4.1,3.4-4.5,6.1l-14,75.8l-80.6-10.8c-2.5-0.3-5.1,0.5-6.9,2.2L256,491.9L197.5,438c-1.6-1.5-3.6-2.3-5.8-2.3
	c-0.4,0-0.8,0-1.1,0.1L110,446.7l-14-75.8c-0.5-2.6-2.2-4.9-4.5-6.1l-71.4-36l35.4-68.8c1.3-2.4,1.3-5.4,0-7.8l-35.4-68.8l71.4-36
	c2.4-1.2,4.1-3.4,4.5-6.1l14-75.8l80.6,10.8c2.5,0.3,5.1-0.5,6.9-2.2L256,20.1L314.5,74c1.9,1.7,4.4,2.5,6.9,2.2L402,65.3l14,75.8
	c0.5,2.6,2.2,4.9,4.5,6.1l71.4,36L456.5,252.1z"/>
</svg>
