<?xml version="1.0" encoding="utf-8"?>
<!-- Generator: Adobe Illustrator 23.0.1, SVG Export Plug-In . SVG Version: 6.00 Build 0)  -->
<svg version="1.1" id="Layer_1" xmlns="http://www.w3.org/2000/svg" xmlns:xlink="http://www.w3.org/1999/xlink" x="0px" y="0px"
	 viewBox="0 0 512 512" style="enable-background:new 0 0 512 512;" xml:space="preserve">
<style type="text/css">
	.st0{fill:#8abd10;}
</style>
<path class="st0" d="M68.5,512H444c4.7,0,8.5-3.8,8.5-8.5V8.5c0-4.7-3.8-8.5-8.5-8.5H68.5C63.8,0,60,3.8,60,8.5v494.9
	C60,508.2,63.8,512,68.5,512z M77.1,17.1h358.4v477.9H77.1V17.1z"/>
<path class="st0" d="M350.1,273.1c-37.7,0-68.2,30.5-68.3,68.1c0,20.7,9.4,40.4,25.6,53.3v74.8c0,4.7,3.8,8.5,8.5,8.5
	c1.8,0,3.6-0.6,5.1-1.7l29-21.8l29,21.8c3.8,2.8,9.1,2.1,11.9-1.7c1.1-1.5,1.7-3.3,1.7-5.1v-74.8c29.4-23.5,34.2-66.4,10.7-95.9
	C390.5,282.5,370.9,273,350.1,273.1z M375.7,452.3l-20.5-15.4c-3-2.3-7.2-2.3-10.2,0l-20.5,15.4v-47.7c16.4,6.7,34.8,6.7,51.2,0
	V452.3z M350.1,392.5c-28.3,0-51.2-22.9-51.2-51.2s22.9-51.2,51.2-51.2s51.2,22.9,51.2,51.2C401.3,369.6,378.4,392.5,350.1,392.5z"
	/>
<path class="st0" d="M196.5,51.2H316v17.1H196.5V51.2z"/>
<path class="st0" d="M222.1,85.3h68.3v17.1h-68.3V85.3z"/>
<path class="st0" d="M111.2,128h281.6v17.1H111.2V128z"/>
<path class="st0" d="M111.2,162.1h281.6v17.1H111.2V162.1z"/>
<path class="st0" d="M111.2,196.3h281.6v17.1H111.2V196.3z"/>
<path class="st0" d="M111.2,230.4h281.6v17.1H111.2V230.4z"/>
<path class="st0" d="M111.2,264.5h145.1v17.1H111.2V264.5z"/>
<path class="st0" d="M119.7,366.9h51.2V384h-51.2V366.9z"/>
<path class="st0" d="M119.7,401.1h51.2v17.1h-51.2V401.1z"/>
<path class="st0" d="M119.7,435.2h51.2v17.1h-51.2V435.2z"/>
</svg>
