<svg xmlns="http://www.w3.org/2000/svg" xmlns:xlink="http://www.w3.org/1999/xlink" viewBox="0 0 366.93 512"><defs><style>.cls-1{fill:url(#New_Gradient_Swatch_2);}</style><linearGradient id="New_Gradient_Swatch_2" x1="-22.15" y1="90.42" x2="327.15" y2="439.72" gradientUnits="userSpaceOnUse"><stop offset="0" stop-color="#29835c"/><stop offset="0.44" stop-color="#67a133"/><stop offset="1" stop-color="#b4c700"/></linearGradient></defs><title>contacts-phone</title><g id="Layer_2" data-name="Layer 2"><g id="Layer_1-2" data-name="Layer 1"><path class="cls-1" d="M247.47,119.46H8.54A8.54,8.54,0,0,0,0,128V503.46A8.54,8.54,0,0,0,8.54,512H247.47a8.53,8.53,0,0,0,8.53-8.54V128A8.54,8.54,0,0,0,247.47,119.46ZM17.07,136.53H238.93v34.14H17.07Zm221.86,51.2V443.14H17.07V187.73Zm0,307.2H17.07V460.21H238.93ZM230.4,68.27h-8.53V85.33h8.53a51.26,51.26,0,0,1,51.2,51.2h17.07A68.34,68.34,0,0,0,230.4,68.27Zm-8.53-34.14h-8.54V51.2h8.54a94,94,0,0,1,93.86,93.87H332.8A111.06,111.06,0,0,0,221.87,34.13Zm0-34.13h-8.54V17.07h8.54a128.14,128.14,0,0,1,128,128h17.06A145.22,145.22,0,0,0,221.87,0Zm-177,304.41,85.33,93.87a8.57,8.57,0,0,0,6.32,2.79H179.2a8.53,8.53,0,0,0,6-2.5l34.14-34.14a8.54,8.54,0,0,0,0-12.07,8.85,8.85,0,0,0-1.3-1.06l-51.2-34.14a8.55,8.55,0,0,0-10.77,1.07l-11,11-30.6-30.61,11-11a8.52,8.52,0,0,0,1.61-9.84l-25.61-51.2a8.53,8.53,0,0,0-11.44-3.83,8.91,8.91,0,0,0-1.52,1L45.87,257.87a8.51,8.51,0,0,0-3.2,6.66v34.13A8.53,8.53,0,0,0,44.89,304.41Zm14.84-35.78,31.23-25,18.12,36.23L96.37,292.61a8.53,8.53,0,0,0,0,12.06L139,347.34a8.53,8.53,0,0,0,12.06,0l12.12-12.12,36.69,24.48L175.67,384H140.3L59.73,295.36Z"/></g></g></svg>