<?xml version="1.0" encoding="utf-8"?>
<!-- Generator: Adobe Illustrator 19.2.1, SVG Export Plug-In . SVG Version: 6.00 Build 0)  -->
<svg version="1.1" id="Layer_1" xmlns="http://www.w3.org/2000/svg" xmlns:xlink="http://www.w3.org/1999/xlink" x="0px" y="0px"
	 viewBox="0 0 512 512" style="enable-background:new 0 0 512 512;" xml:space="preserve">
<style type="text/css">
	.st0{fill:#8abd10;}
</style>
<path class="st0" d="M376.9,74.9l56-60.4c3.3-3.4,3.2-8.8-0.2-12.1c-3.4-3.3-8.8-3.2-12.1,0.2c-0.1,0.1-0.1,0.1-0.2,0.2L359,69.2
	l-59.6,59.6c-3.3,3.3-3.3,8.7,0,12.1l4.1,4.1l-23.5,22.3c-1.6,1.5-3.7,2.3-5.9,2.3h-35c-0.9,0-1.8,0.1-2.7,0.3l-28.4-32.8l4.7-4.7
	c3.3-3.3,3.3-8.7,0-12.1L153,60.7L100.1,2.9C97-0.6,91.6-0.8,88.1,2.4c-3.5,3.2-3.7,8.6-0.5,12.1l47.5,51.9L2.5,198.9
	c-3.3,3.3-3.3,8.7,0,12.1l59.7,59.7c3.3,3.3,8.7,3.3,12.1,0l2.5-2.5l37.8,37.8l-5.7,5.4c-11.1,10.4-11.7,27.9-1.3,39
	c0.4,0.5,0.9,0.9,1.3,1.3c5.6,5.2,13,8.1,20.6,8.1h0.1c0.1,7.5,3.2,14.7,8.7,19.9c5.6,5.2,13,8.1,20.6,8.1h0.1
	c0.1,7.5,3.2,14.7,8.7,19.9c5.6,5.2,13,8.1,20.6,8.1h0.1c0.1,7.6,3.2,14.7,8.7,19.9c11.6,10.8,29.6,10.8,41.2,0l7.3-7l6.9,7.1
	c5.5,5.2,12.9,8.1,20.5,8c16.1,0,29.4-12.4,30.6-28.4c7.8-0.1,15.3-3.3,20.8-8.8c5.5-5.2,8.7-12.4,8.7-20c7.9,0,15.6-3.1,21.3-8.6
	c5.5-5.1,8.6-12.3,8.7-19.8h0.2c7.5,0,14.8-2.8,20.3-7.9c5.5-5.1,8.6-12.3,8.6-19.8c0-7.7-3.2-15-8.8-20.3l-0.2-0.2l43.6-41.4
	l10.6,10.6c3.3,3.3,8.7,3.3,12.1,0l59.7-59.7c3.3-3.3,3.3-8.7,0-12.1L376.9,74.9z M20.6,204.9L146.9,78.6l47.7,47.7L68.3,252.6
	L20.6,204.9z M120.6,339.4c-4.3-3.9-4.6-10.6-0.7-14.9c0.2-0.2,0.5-0.5,0.7-0.7l34.4-32.6c5-4.6,12.7-4.6,17.7,0
	c4.3,3.9,4.6,10.6,0.7,14.9c-0.2,0.2-0.5,0.5-0.7,0.7l-34.4,32.6C133.3,344,125.6,344,120.6,339.4z M150.1,367.4
	c-4.3-3.9-4.6-10.6-0.7-14.9c0.2-0.2,0.5-0.5,0.7-0.7l34.4-32.6c5-4.6,12.7-4.6,17.7,0c4.3,3.9,4.6,10.6,0.7,14.9
	c-0.2,0.2-0.5,0.5-0.7,0.7l-34.4,32.6C162.8,371.9,155.1,371.9,150.1,367.4z M179.5,395.3c-4.3-3.9-4.6-10.6-0.7-14.9
	c0.2-0.2,0.5-0.5,0.7-0.7l34.4-32.6c5-4.6,12.7-4.6,17.7,0c4.3,3.9,4.6,10.6,0.7,14.9c-0.2,0.2-0.4,0.5-0.7,0.7l-34.4,32.6
	C192.3,400,184.5,400,179.5,395.3z M226.7,423.4c-5,4.7-12.7,4.7-17.7,0c-4.3-3.9-4.6-10.6-0.7-14.9c0.2-0.2,0.5-0.5,0.7-0.7
	l34.4-32.7c5-4.6,12.7-4.6,17.7,0c4.3,3.9,4.6,10.6,0.7,14.9c-0.2,0.2-0.5,0.5-0.7,0.7L226.7,423.4z M282.5,423.1
	c-4.9,4.8-12.6,5-17.8,0.5l-6.5-6.6l14.7-13.9c1.2-1.2,2.3-2.5,3.3-3.8l8.1,8.1c1.7,1.6,2.7,3.9,2.7,6.3
	C286.8,417.3,285.1,420.7,282.5,423.1L282.5,423.1z M371.9,322.6c2.2,2,3.5,4.9,3.5,7.9c0,2.8-1.2,5.6-3.3,7.5
	c-5,4.5-12.6,4.4-17.5-0.2l-26.3-25c-3.4-3.3-8.8-3.1-12.1,0.3c-3.3,3.4-3.1,8.8,0.3,12.1l26.3,25c2.2,2,3.4,4.8,3.4,7.8
	c-0.1,3.2-1.6,6.3-4.1,8.4c-5,4.7-12.7,4.7-17.7,0l-24.1-22.9c-3.4-3.2-8.8-3.1-12.1,0.3c-3.2,3.4-3.1,8.8,0.3,12.1l24.1,22.9
	c2.2,2,3.4,4.8,3.4,7.8c-0.1,3.2-1.6,6.3-4.1,8.4c-4.2,4.5-11.3,4.8-15.8,0.5c-0.1-0.1-0.2-0.2-0.3-0.2l-8.5-8.5l-6.3-6.3
	c-0.6-6.7-3.6-13-8.5-17.6c-5.6-5.3-13-8.2-20.7-8.1c-0.1-7.5-3.2-14.7-8.7-19.9c-5.6-5.3-13-8.2-20.7-8.1
	c-0.1-7.5-3.2-14.7-8.7-19.9c-5.6-5.3-13-8.2-20.7-8.1c-0.1-7.5-3.2-14.7-8.7-19.9c-11.6-10.8-29.6-10.8-41.2,0l-16.2,15.4l-38-38.1
	l106.9-106.9l24.6,28.4l-32.3,30.7c-8.9,8.3-9.3,22.3-1,31.2c0.3,0.3,0.6,0.7,1,1c8.9,8.3,22.5,8.6,31.8,0.7l37.7-22.2
	c3.3-2,7.6-1.4,10.3,1.3l75.3,74.2c0.4,0.9,1,1.7,1.7,2.4l20.3,19.3l5.8,5.8l0.1-0.1L371.9,322.6z M371.2,298.1L279.9,208
	c-8.3-8.1-21-9.7-31-3.8l-38.4,22.6L209,228c-2.6,2.3-6.5,2.3-9.1,0c-2-1.9-2.2-5-0.3-7.1c0.1-0.1,0.2-0.2,0.3-0.3l33.3-31.6
	c1.6-1.5,3.7-2.4,5.9-2.4h35c6.6,0,12.9-2.5,17.6-7l23.7-22.5l99.1,100L371.2,298.1z M443.7,261.1L317.4,134.8l47.7-47.7
	l126.3,126.3L443.7,261.1z"/>
<path class="st0" d="M85.3,204.9c0,9.4-7.6,17.1-17.1,17.1c-9.4,0-17.1-7.6-17.1-17.1s7.6-17.1,17.1-17.1
	C77.7,187.8,85.3,195.5,85.3,204.9z"/>
<path class="st0" d="M460.8,213.4c0,9.4-7.6,17.1-17.1,17.1c-9.4,0-17.1-7.6-17.1-17.1s7.6-17.1,17.1-17.1
	C453.1,196.4,460.8,204,460.8,213.4z"/>
</svg>
