<?xml version="1.0" encoding="utf-8"?>
<!-- Generator: Adobe Illustrator 19.2.1, SVG Export Plug-In . SVG Version: 6.00 Build 0)  -->
<svg version="1.1" id="Layer_1" xmlns="http://www.w3.org/2000/svg" xmlns:xlink="http://www.w3.org/1999/xlink" x="0px" y="0px"
	 viewBox="0 0 512 512" style="enable-background:new 0 0 512 512;" xml:space="preserve">
<style type="text/css">
	.st0{fill:#FFFFFF;}
</style>
<path class="st0" d="M123.7,512c39.3,0,101.5-6,118.9-26.6c2.9-1.4,4.8-4.3,4.8-7.6V238.9c-0.1-0.6-0.2-1.3-0.4-1.9
	c0.2-0.8,0.3-1.6,0.4-2.4c0-30.3-77.8-38.4-123.7-38.4S0,204.4,0,234.7c0.1,0.8,0.2,1.6,0.4,2.4c-0.2,0.6-0.3,1.3-0.4,1.9v230.4
	c0.1,0.7,0.2,1.4,0.4,2.1c-0.2,0.7-0.4,1.4-0.4,2.1C0,503.9,77.8,512,123.7,512z M123.7,273.1c32.6,0,81.2-4.1,106.7-17.3v13
	c-1.9,7.3-41.2,21.4-106.7,21.4S18.9,276,17.1,268.8v-13.1C42.6,268.9,91.1,273.1,123.7,273.1z M123.7,307.2
	c32.6,0,81.2-4.1,106.7-17.3v13c-1.9,7.3-41.2,21.4-106.7,21.4S18.9,310.1,17.1,302.9v-13.1C42.6,303.1,91.1,307.2,123.7,307.2z
	 M123.7,341.3c32.6,0,81.2-4.1,106.7-17.3v13c-1.9,7.3-41.2,21.4-106.7,21.4S18.9,344.2,17.1,337.1V324
	C42.6,337.2,91.1,341.3,123.7,341.3z M123.7,375.5c32.6,0,81.2-4.1,106.7-17.3v13c-1.9,7.3-41.2,21.4-106.7,21.4
	S18.9,378.4,17.1,371.2v-13.1C42.6,371.3,91.1,375.5,123.7,375.5z M123.7,409.6c32.6,0,81.2-4.1,106.7-17.3v13
	c-1.9,7.3-41.2,21.4-106.7,21.4S18.9,412.5,17.1,405.3v-13.1C42.6,405.5,91.1,409.6,123.7,409.6z M123.7,443.7
	c32.6,0,81.2-4.1,106.7-17.4v13c-1.9,7.3-41.2,21.4-106.7,21.4S18.9,446.6,17.1,439.5v-13.1C42.6,439.6,91.1,443.7,123.7,443.7z
	 M123.7,494.9c-65.5,0-104.8-14.2-106.7-21.3c0-0.7-0.2-1.4-0.4-2.1c0.2-0.7,0.4-1.4,0.4-2.1v-8.8c25.5,13.2,74,17.3,106.7,17.3
	c32.6,0,81.2-4.1,106.7-17.3v13C228.5,480.8,189.2,494.9,123.7,494.9z M123.7,213.3c65.2,0,104.4,14,106.7,21.3
	c-2.2,7.3-41.5,21.3-106.7,21.3c-65.5,0-104.8-14.2-106.7-21.2C18.9,227.5,58.3,213.3,123.7,213.3z"/>
<path class="st0" d="M162.1,170.7c0,4.7,3.8,8.5,8.5,8.5s8.5-3.8,8.5-8.5v-8.8c25.5,13.2,74,17.3,106.7,17.3
	c32.6,0,81.2-4.1,106.7-17.3v13c-1.9,7.3-41.2,21.4-106.7,21.4c-4.2,0-8.4-0.1-12.6-0.2c-4.7-0.1-8.6,3.6-8.8,8.3s3.6,8.6,8.3,8.8
	c4.3,0.1,8.6,0.2,13,0.2c32.6,0,81.2-4.1,106.7-17.3v13c-1.9,7.3-41.2,21.4-106.7,21.4c-4.2,0-8.4-0.1-12.6-0.2
	c-4.7-0.1-8.6,3.6-8.8,8.3c-0.1,4.7,3.6,8.6,8.3,8.8c4.3,0.1,8.6,0.2,13,0.2c32.6,0,81.2-4.1,106.7-17.4v13
	c-1.9,7.3-41.2,21.4-106.7,21.4c-4.2,0-8.4-0.1-12.6-0.2c-4.7-0.1-8.6,3.6-8.8,8.3c-0.1,4.7,3.6,8.6,8.3,8.8c4.3,0.1,8.6,0.2,13,0.2
	c32.6,0,81.2-4.1,106.7-17.3v13c-1.9,7.3-41.2,21.4-106.7,21.4c-4.2,0-8.4-0.1-12.6-0.2c-4.7-0.1-8.6,3.6-8.8,8.3
	c-0.1,4.7,3.6,8.6,8.3,8.8c4.3,0.1,8.6,0.2,13,0.2c32.6,0,81.2-4.1,106.7-17.3v13c-1.9,7.3-41.2,21.4-106.7,21.4
	c-4.2,0-8.4-0.1-12.6-0.2c-4.7-0.1-8.6,3.6-8.8,8.3c-0.1,4.7,3.6,8.6,8.3,8.8c4.3,0.1,8.6,0.2,13,0.2c32.6,0,81.2-4.1,106.7-17.3v13
	c-1.9,7.3-41.2,21.4-106.7,21.4c-4.2,0-8.4-0.1-12.6-0.2c-4.7-0.1-8.6,3.6-8.8,8.3c-0.1,4.7,3.6,8.6,8.3,8.8c4.3,0.1,8.6,0.2,13,0.2
	c32.6,0,81.2-4.1,106.7-17.3v13c-1.9,7.3-41.2,21.4-106.7,21.4c-4.2,0-8.4-0.1-12.6-0.2c-4.7-0.1-8.6,3.6-8.8,8.3s3.6,8.6,8.3,8.8
	c4.3,0.1,8.6,0.2,13,0.2c32.6,0,81.2-4.1,106.7-17.4v13c-1.9,7.3-41.2,21.4-106.7,21.4c-4.2,0-8.4-0.1-12.6-0.2
	c-4.7-0.1-8.6,3.6-8.8,8.3c-0.1,4.7,3.6,8.6,8.3,8.8c4.3,0.1,8.6,0.2,13,0.2c39.3,0,101.5-6,118.9-26.6c2.9-1.4,4.8-4.3,4.8-7.6
	V42.7c-0.1-0.7-0.2-1.3-0.4-1.9c0.2-0.8,0.3-1.6,0.4-2.4C409.6,8.1,331.8,0,285.9,0S162.1,8.1,162.1,38.4c0.1,0.8,0.2,1.6,0.4,2.4
	c-0.2,0.6-0.3,1.3-0.4,1.9V170.7z M285.9,76.8c32.6,0,81.2-4.1,106.7-17.3v13c-1.9,7.3-41.2,21.4-106.7,21.4S181.1,79.7,179.2,72.5
	V59.5C204.7,72.7,253.2,76.8,285.9,76.8z M392.5,106.6c-1.9,7.3-41.2,21.4-106.7,21.4s-104.8-14.2-106.7-21.3V93.6
	c25.5,13.2,74,17.3,106.7,17.3c32.6,0,81.2-4.1,106.7-17.3V106.6z M285.9,162.1c-65.5,0-104.8-14.2-106.7-21.3v-13.1
	c25.5,13.2,74,17.3,106.7,17.3c32.6,0,81.2-4.1,106.7-17.3v13C390.6,148,351.3,162.1,285.9,162.1z M285.9,17.1
	c65.2,0,104.4,14,106.7,21.3c-2.2,7.3-41.5,21.3-106.7,21.3c-65.5,0-104.8-14.2-106.7-21.2C181.1,31.2,220.4,17.1,285.9,17.1z"/>
</svg>
