<?xml version="1.0" encoding="utf-8"?>
<!-- Generator: Adobe Illustrator 23.0.1, SVG Export Plug-In . SVG Version: 6.00 Build 0)  -->
<svg version="1.1" id="Layer_1" xmlns="http://www.w3.org/2000/svg" xmlns:xlink="http://www.w3.org/1999/xlink" x="0px" y="0px"
	 viewBox="0 0 512 512" style="enable-background:new 0 0 512 512;" xml:space="preserve">
<style type="text/css">
	.st0{fill:#8abd10;}
</style>
<path class="st0" d="M503.5,111.3H162.1c-0.5,0-1,0-1.5,0.1l-93.9,17.1c-4.1,0.7-7,4.3-7,8.4v68.3c0,4.7,3.8,8.5,8.5,8.5h85.3v17.1
	H51.2c-3.4,0-6.5,2.1-7.9,5.2L0.7,337.3c-0.4,1.1-0.7,2.2-0.7,3.3v77.9c0,4.7,3.8,8.5,8.5,8.5h26.4c1.6,9.5,5.9,18.4,12.4,25.6H0
	v17.1h512v-17.1h-64.3c6.5-7.2,10.8-16.1,12.4-25.6h43.4c4.7,0,8.5-3.8,8.5-8.5V119.8C512,115.1,508.2,111.3,503.5,111.3z
	 M135.8,427h223.4c1.6,9.5,5.9,18.4,12.4,25.6H123.4C129.9,445.4,134.1,436.5,135.8,427z M359.2,409.9H170.7v-17.1h194.7
	C362.3,398.1,360.2,403.9,359.2,409.9z M119.5,281.9v42.7H68.3v-42.7H119.5z M51.2,324.6H24.5l18-42.7h8.7V324.6z M17.1,375.8h17.1
	v-17.1H17.1v-16.4l0.3-0.7H128c4.7,0,8.5-3.8,8.5-8.5v-59.7c0-4.7-3.8-8.5-8.5-8.5H49.7l7.2-17.1h96.7v162.1h-17.8
	c-4.7-27.9-31.1-46.6-58.9-41.9c-21.5,3.6-38.3,20.5-41.9,41.9H17.1V375.8z M51.2,418.5c0-18.9,15.3-34.1,34.1-34.1
	s34.1,15.3,34.1,34.1s-15.3,34.1-34.1,34.1S51.2,437.3,51.2,418.5z M375.5,418.5c0-18.9,15.3-34.1,34.1-34.1
	c18.9,0,34.1,15.3,34.1,34.1s-15.3,34.1-34.1,34.1C390.8,452.6,375.5,437.3,375.5,418.5z M494.9,409.9H460c-1-6-3.1-11.8-6.2-17.1
	h41.1V409.9z M494.9,375.8h-57.1c-17.1-11.4-39.4-11.4-56.5,0H170.7V205.1c0-4.7-3.8-8.5-8.5-8.5H76.8V144l86.1-15.7h332V375.8z"/>
<path class="st0" d="M119.5,350.2h17.1v8.5h-17.1V350.2z"/>
<path class="st0" d="M307.2,43h8.5v17.1h-8.5V43z"/>
<path class="st0" d="M196.3,43h93.9v17.1h-93.9V43z"/>
<path class="st0" d="M349.9,77.1h85.3v17.1h-85.3V77.1z"/>
<path class="st0" d="M452.3,77.1h8.5v17.1h-8.5V77.1z"/>
<path class="st0" d="M324.3,43h8.5v17.1h-8.5V43z"/>
<path class="st0" d="M469.3,77.1h8.5v17.1h-8.5V77.1z"/>
</svg>
