<svg xmlns="http://www.w3.org/2000/svg" xmlns:xlink="http://www.w3.org/1999/xlink" viewBox="0 0 477.87 512"><defs><style>.cls-1{fill:url(#New_Gradient_Swatch_2);}</style><linearGradient id="New_Gradient_Swatch_2" x1="-68.27" y1="-12.8" x2="517.63" y2="573.1" gradientUnits="userSpaceOnUse"><stop offset="0" stop-color="#29835c"/><stop offset="0.44" stop-color="#67a133"/><stop offset="1" stop-color="#b4c700"/></linearGradient></defs><title>contacts-buildings</title><g id="Layer_2" data-name="Layer 2"><g id="Layer_1-2" data-name="Layer 1"><path class="cls-1" d="M8.53,512h460.8a8.53,8.53,0,0,0,8.54-8.53V85.33a8.53,8.53,0,0,0-8.54-8.53H358.4V34.13a8.53,8.53,0,0,0-8.53-8.53H256V8.53H238.93V25.6H221.87V0H204.8V25.6H179.2a8.53,8.53,0,0,0-8.53,8.53v85.33H153.6V68.27a8.53,8.53,0,0,0-8.53-8.54H8.53A8.53,8.53,0,0,0,0,68.27v435.2A8.53,8.53,0,0,0,8.53,512ZM358.4,494.93v-25.6h17.06V452.27H358.4V435.2h17.06V418.13H358.4V401.07h17.06V384H358.4V366.93h17.06V349.87H358.4V332.8h17.06V315.73H358.4V298.67h17.06V281.6H358.4V264.54h68.27v230.4H358.4ZM460.8,93.87V494.93H443.73V256a8.53,8.53,0,0,0-8.53-8.53H358.4V230.4h17.07V213.34H358.4V196.27h17.07V179.2H358.4V162.13h17.07V145.07H358.4V128h17.07V110.93H358.4V93.87ZM187.73,42.67h153.6V494.93H187.73ZM170.67,494.93H93.87V136.54h76.8ZM17.07,76.8H136.53v42.66H85.33A8.54,8.54,0,0,0,76.8,128H68.27v17.07H76.8v17.06H68.27V179.2H76.8v17.07H68.27v17.06H76.8V230.4H68.27v17.06H76.8v17.07H68.27V281.6H76.8v17.06H68.27v17.07H76.8v17.06H68.27v17.07H76.8v17.07H68.27V384H76.8v17.07H68.27v17.07H76.8v17.06H68.27v17.07H76.8v42.67H17.07ZM204.8,59.73H324.27V76.8H204.8Zm0,34.14H324.27v17.06H204.8Zm0,34.13h17.07v17.07H204.8Zm34.13,0H256v17.07H238.93Zm34.14,0h17.06v17.07H273.07Zm34.13,0h17.07v17.07H307.2ZM204.8,162.13h17.07V179.2H204.8Zm34.13,0H256V179.2H238.93Zm34.14,0h17.06V179.2H273.07Zm34.13,0h17.07V179.2H307.2ZM204.8,196.27h17.07v17.06H204.8Zm34.13,0H256v17.06H238.93Zm34.14,0h17.06v17.06H273.07Zm34.13,0h17.07v17.06H307.2ZM204.8,230.4h17.07v17.06H204.8Zm34.13,0H256v17.06H238.93Zm34.14,0h17.06v17.06H273.07Zm34.13,0h17.07v17.06H307.2ZM204.8,264.54h17.07V281.6H204.8Zm34.13,0H256V281.6H238.93Zm34.14,0h17.06V281.6H273.07Zm34.13,0h17.07V281.6H307.2ZM204.8,298.67h17.07v17.06H204.8Zm34.13,0H256v17.06H238.93Zm34.14,0h17.06v17.06H273.07Zm34.13,0h17.07v17.06H307.2ZM204.8,332.8h17.07v17.07H204.8Zm34.13,0H256v17.07H238.93Zm34.14,0h17.06v17.07H273.07Zm34.13,0h17.07v17.07H307.2ZM204.8,366.93h17.07V384H204.8Zm34.13,0H256V384H238.93Zm34.14,0h17.06V384H273.07Zm34.13,0h17.07V384H307.2ZM204.8,401.07h17.07v17.06H204.8Zm34.13,0H256v17.06H238.93Zm34.14,0h17.06v17.06H273.07Zm34.13,0h17.07v17.06H307.2ZM204.8,435.2h17.07v17.07H204.8Zm34.13,0H256v17.07H238.93Zm34.14,0h17.06v17.07H273.07Zm34.13,0h17.07v17.07H307.2ZM204.8,469.33H324.27V486.4H204.8Zm221.87-358.4h17.06V128H426.67Zm-34.13,0H409.6V128H392.54Zm34.13,34.14h17.06v17.06H426.67Zm-34.13,0H409.6v17.06H392.54Zm34.13,34.13h17.06v17.07H426.67Zm-34.13,0H409.6v17.07H392.54Zm34.13,34.13h17.06V230.4H426.67Zm-34.13,0H409.6V230.4H392.54Zm0,68.27H409.6v17.07H392.54Zm0,34.13H409.6V332.8H392.54Zm0,34.14H409.6v17.06H392.54Zm0,34.13H409.6v17.07H392.54Zm0,34.13H409.6V435.2H392.54Zm0,34.14H409.6v17.06H392.54ZM110.93,153.6H128v17.07H110.93Zm34.14,0h17.06v17.07H145.07Zm-34.14,34.13H128V204.8H110.93Zm34.14,0h17.06V204.8H145.07Zm-34.14,34.14H128v17.06H110.93Zm34.14,0h17.06v17.06H145.07ZM110.93,256H128v17.07H110.93Zm34.14,0h17.06v17.07H145.07Zm-34.14,34.13H128V307.2H110.93Zm34.14,0h17.06V307.2H145.07Zm-34.14,34.14H128v17.06H110.93Zm34.14,0h17.06v17.06H145.07ZM110.93,358.4H128v17.06H110.93Zm34.14,0h17.06v17.06H145.07Zm-34.14,34.14H128V409.6H110.93Zm34.14,0h17.06V409.6H145.07Zm-34.14,34.13H128v17.06H110.93Zm34.14,0h17.06v17.06H145.07ZM110.93,460.8H128v17.07H110.93Zm34.14,0h17.06v17.07H145.07ZM34.13,93.87H51.2v17.06H34.13Zm34.14,0H85.33v17.06H68.27ZM34.13,128H51.2v17.07H34.13Zm0,34.13H51.2V179.2H34.13Zm0,34.14H51.2v17.06H34.13Zm0,34.13H51.2v17.06H34.13Zm0,34.14H51.2V281.6H34.13Zm0,34.13H51.2v17.06H34.13Zm0,34.13H51.2v17.07H34.13Zm0,34.13H51.2V384H34.13Zm0,34.14H51.2v17.06H34.13Zm0,34.13H51.2v17.07H34.13ZM102.4,93.87h17.06v17.06H102.4Z"/></g></g></svg>