<svg xmlns="http://www.w3.org/2000/svg" xmlns:xlink="http://www.w3.org/1999/xlink" viewBox="0 0 512 512"><defs><style>.cls-1{fill:url(#New_Gradient_Swatch_2);}</style><linearGradient id="New_Gradient_Swatch_2" x1="26.31" y1="56.18" x2="488.64" y2="518.51" gradientUnits="userSpaceOnUse"><stop offset="0" stop-color="#29835c"/><stop offset="0.44" stop-color="#67a133"/><stop offset="1" stop-color="#b4c700"/></linearGradient></defs><title>contacts-factory</title><g id="Layer_2" data-name="Layer 2"><g id="Layer_1-2" data-name="Layer 1"><path class="cls-1" d="M503.47,59.73H443.73V0H426.67V59.73H409.6V25.6H392.54V59.73H375.47V25.6H358.4V59.73H290.14a8.54,8.54,0,0,0-8.54,8.54v25.6h-8.53a25.6,25.6,0,0,0-25.6,25.6V242l-51.2,32.58V170.67a8.53,8.53,0,0,0-13.27-7.1l-72.06,48.06V59.73h8.53A8.53,8.53,0,0,0,128,51.2V8.53A8.53,8.53,0,0,0,119.47,0H34.13A8.53,8.53,0,0,0,25.6,8.53V51.2a8.53,8.53,0,0,0,8.53,8.53h8.54v197.4L3.8,283a7.85,7.85,0,0,0-.74.67,8.93,8.93,0,0,0-.85.78A8.63,8.63,0,0,0,1,286.2a6.16,6.16,0,0,0-.44.85,8.36,8.36,0,0,0-.6,3V503.47A8.53,8.53,0,0,0,8.54,512H503.47a8.53,8.53,0,0,0,8.53-8.53V68.27A8.53,8.53,0,0,0,503.47,59.73ZM264.54,119.46a8.53,8.53,0,0,1,8.53-8.53h8.53V220.29l-17.06,10.85Zm102.39,66.75V281.6H217ZM42.67,17.07h68.26v25.6H42.67ZM59.73,59.73H93.87V223L59.73,245.76ZM179.2,186.62v95H36.7ZM128,494.93V401.07h51.2v93.86Zm68.27,0V401.07h51.2v93.86Zm68.27,0V392.54A8.54,8.54,0,0,0,256,384H119.47a8.54,8.54,0,0,0-8.54,8.54V494.93H17.07V298.67H366.93V494.93Zm230.39,0H384V170.67a8.54,8.54,0,0,0-13.12-7.21l-72.21,46V76.8H494.93ZM341.34,315.73H42.67a8.54,8.54,0,0,0-8.54,8.54v42.66a8.53,8.53,0,0,0,8.54,8.53H341.34a8.53,8.53,0,0,0,8.53-8.53V324.27A8.53,8.53,0,0,0,341.34,315.73ZM51.2,332.8H76.8v25.6H51.2Zm42.67,0h25.6v25.6H93.87Zm42.67,0h25.59v25.6H136.54Zm42.66,0h25.6v25.6H179.2Zm42.67,0h25.6v25.6h-25.6Zm42.67,0h25.59v25.6H264.54Zm68.26,25.6H307.2V332.8h25.6Zm128-196.27H418.13a8.53,8.53,0,0,0-8.53,8.54v42.66a8.53,8.53,0,0,0,8.53,8.54H460.8a8.53,8.53,0,0,0,8.53-8.54V170.67A8.53,8.53,0,0,0,460.8,162.13Zm-8.53,42.67h-25.6V179.2h25.6Zm8.53,34.13H418.13a8.53,8.53,0,0,0-8.53,8.53v42.67a8.54,8.54,0,0,0,8.53,8.54H460.8a8.54,8.54,0,0,0,8.53-8.54V247.46A8.53,8.53,0,0,0,460.8,238.93Zm-8.53,42.67h-25.6V256h25.6Zm8.53,34.13H418.13a8.53,8.53,0,0,0-8.53,8.54v42.66a8.53,8.53,0,0,0,8.53,8.53H460.8a8.53,8.53,0,0,0,8.53-8.53V324.27A8.53,8.53,0,0,0,460.8,315.73Zm-8.53,42.67h-25.6V332.8h25.6Zm8.53,34.14H418.13a8.53,8.53,0,0,0-8.53,8.53v42.66a8.53,8.53,0,0,0,8.53,8.54H460.8a8.53,8.53,0,0,0,8.53-8.54V401.07A8.53,8.53,0,0,0,460.8,392.54Zm-8.53,42.66h-25.6V409.6h25.6Zm-128-290.13h153.6a8.53,8.53,0,0,0,8.53-8.53V102.4a8.53,8.53,0,0,0-8.53-8.53H324.27a8.53,8.53,0,0,0-8.54,8.53v34.14A8.53,8.53,0,0,0,324.27,145.07Zm8.53-34.14H469.34V128H332.8ZM153.6,435.2h17.07v17.07H153.6Zm51.2,0h17.07v17.07H204.8Z"/></g></g></svg>