<?xml version="1.0" encoding="UTF-8"?>
<svg viewBox="0 0 232.34 104.17" xmlns="http://www.w3.org/2000/svg">
<defs>
<style>.cls-1{fill:url(#g);}.cls-2{fill:url(#f);}.cls-3{fill:url(#e);}.cls-4{fill:url(#d);}.cls-5{fill:url(#c);}.cls-6{fill:url(#b);}.cls-7{fill:#e5e5e5;}.cls-8{fill:url(#a);}</style>
<linearGradient id="g" x1="36.87" x2="124.9" y1="93.98" y2="5.94" gradientUnits="userSpaceOnUse">
<stop stop-color="#001f7b" offset=".28"/>
<stop stop-color="#00a8ff" offset=".75"/>
</linearGradient>
<linearGradient id="f" x1="208.36" x2="249.64" y1="46.37" y2="95.17" gradientUnits="userSpaceOnUse">
<stop stop-color="#fff" offset="0"/>
<stop stop-color="#666" offset=".46"/>
</linearGradient>
<linearGradient id="e" x1="170.74" x2="214.03" y1="72.86" y2="34.01" gradientUnits="userSpaceOnUse">
<stop stop-color="#001f7b" offset="0"/>
<stop stop-color="#00a8ff" offset=".63"/>
</linearGradient>
<linearGradient id="d" x1="151.7" x2="243.37" y1="26.05" y2="75.48" gradientUnits="userSpaceOnUse">
<stop stop-color="#fff" offset=".18"/>
<stop stop-color="#cbcbcb" offset=".54"/>
</linearGradient>
<linearGradient id="c" x1="187.78" x2="200.71" y1="54.24" y2="52.89" gradientUnits="userSpaceOnUse">
<stop stop-color="#002751" offset="0"/>
<stop stop-color="#00a7fd" offset=".75"/>
</linearGradient>
<linearGradient id="b" x1="201.04" x2="219.28" y1="58" y2="42.54" gradientUnits="userSpaceOnUse">
<stop stop-color="#001f7b" offset="0"/>
<stop stop-color="#00a8ff" offset="1"/>
</linearGradient>
<linearGradient id="a" x1="167.81" x2="177.71" y1="63.22" y2="64.12" gradientUnits="userSpaceOnUse">
<stop stop-color="#002751" offset=".06"/>
<stop stop-color="#00a7fd" offset=".91"/>
</linearGradient>
</defs>
<title>logo</title>
<g data-name="Layer 2">
<g data-name="Layer 1">
<path class="cls-1" d="M7,48.08H0l9.54-25.2h7.2l9.54,25.2h-7l-1.62-4.5h-9Zm3.24-9.18H16l-2.88-8.46Z"/>
<path class="cls-1" d="M34,47a4.91,4.91,0,0,1-3.63,1.49,21.94,21.94,0,0,1-4.07-.36V43.22H27.9A1.48,1.48,0,0,0,29,42.75a1.71,1.71,0,0,0,.49-1.15L30.6,22.88h20v25.2H44.1V27.92H36.54l-.9,14.94A6.19,6.19,0,0,1,34,47Z"/>
<path class="cls-1" d="M86.22,41.24q0,3.78-1.71,5.49T79,48.44h-7.2q-3.78,0-5.49-1.71t-1.71-5.49V37.82H61.38V48.08H54.9V22.88h6.48v9.9h3.24V29.72q0-3.78,1.71-5.49t5.49-1.71H79q3.78,0,5.49,1.71t1.71,5.49ZM79.74,29.72a1.91,1.91,0,0,0-2.16-2.16H73.26a1.91,1.91,0,0,0-2.16,2.16V41.24a1.91,1.91,0,0,0,2.16,2.16h4.32a1.91,1.91,0,0,0,2.16-2.16Z"/>
<path class="cls-1" d="m111.42 34l-5 9h-5l-5-9v14h-6.6v-25.12h6.84l7.2 13.32 7.2-13.32h6.84v25.2h-6.48z"/>
<path class="cls-1" d="M144.9,41.24q0,3.78-1.71,5.49t-5.49,1.71h-9q-3.78,0-5.49-1.71t-1.71-5.49V29.72q0-3.78,1.71-5.49t5.49-1.71h9q3.78,0,5.49,1.71t1.71,5.49Zm-6.48-11.52a1.91,1.91,0,0,0-2.16-2.16h-6.12A1.91,1.91,0,0,0,128,29.72V41.24a1.91,1.91,0,0,0,2.16,2.16h6.12a1.91,1.91,0,0,0,2.16-2.16Z"/>
<path class="cls-1" d="M45.18,84.72q-8,.72-13.32.72-3.52,0-5.18-1.65T25,78.6V67.08q0-3.78,1.71-5.49t5.49-1.71h13v5H33.66a1.91,1.91,0,0,0-2.16,2.16V78.6A1.78,1.78,0,0,0,32,79.92a1.67,1.67,0,0,0,1.24.48c.5,0,1.05,0,1.65,0l1.88,0,2-.07c.66,0,1.51-.07,2.55-.15l3.91-.25Z"/>
<path class="cls-1" d="M60.3,85.08H53.82V64.92H46.26v-5h21.6v5H60.3Z"/>
<path class="cls-1" d="M70.38,59.88H85.5q3.78,0,5.49,1.71t1.71,5.49v3.6q0,3.78-1.71,5.49T85.5,77.88H76.86v7.2H70.38Zm15.84,7.2a1.91,1.91,0,0,0-2.16-2.16h-7.2v7.92h7.2a1.91,1.91,0,0,0,2.16-2.16Z"/>
<path class="cls-1" d="M118.62,78.24q0,3.78-1.71,5.49t-5.49,1.71h-9q-3.78,0-5.49-1.71t-1.71-5.49V66.72q0-3.78,1.71-5.49t5.49-1.71h9q3.78,0,5.49,1.71t1.71,5.49Zm-6.48-11.52A1.91,1.91,0,0,0,110,64.56h-6.12a1.91,1.91,0,0,0-2.16,2.16V78.24a1.91,1.91,0,0,0,2.16,2.16H110a1.91,1.91,0,0,0,2.16-2.16Z"/>
<path class="cls-1" d="M137.7,85.08V69.6l-8.64,15.48h-6.84V59.88h6.48V75.36l8.64-15.48h6.84v25.2Zm-6.48-27q-4.68,0-4.68-4.68V52.32h4.68v.9a1.23,1.23,0,0,0,1.26,1.26h1.08a1.23,1.23,0,0,0,1.26-1.26v-.9h4.68V53.4q0,4.68-4.68,4.68Z"/>
<polygon class="cls-2" points="216.39 23.51 220.01 21.97 220.01 95.15 216.39 94.03"/>
<polygon class="cls-3" points="185.57 29.17 182.38 28.07 182.38 94.86 185.57 93.9"/>
<path class="cls-4" d="M185.57,12.69,201.51,0V104.17l-15.94-7.82ZM169,88.28l13.4,6.58V28.07L169,36Z"/>
<path class="cls-5" d="M200.33,47.86V51.8l-6,.85V49.16Zm-6,6.93v3.5l6-.4v-4Zm0,11.28v3.51l6,.51v-4Zm0-5.66v3.52l6,0V60Zm0,11.29v3.5l6,1v-4Zm0,11.28v3.46l6,1.87V84.4Zm0-5.64v3.48l6,1.42V78.3Zm0-56.22V24.4l6-3.12V17.53Zm0,5.6v3.34l6-2.67v-3.8Zm6-15.24-6,4v3.22l6-3.58Zm-6,77.15v3.42l6,2.33V90.5Zm0-50.7v3.44l6-1.77V35.72Zm0-5.6v3.39l6-2.22V29.65Zm0,11.22V47l6-1.31V41.78ZM187.52,76.2v3l4.56,1.08V76.94Zm0-5.12v3l4.56.74V71.47Zm0-5.11v3l4.56.39V66Zm0-10.23v3l4.56-.3V55.09Zm0,25.58v3l4.56,1.44V82.41ZM192.08,17l-4.56,3.09v2.76l4.56-2.74Zm-4.56,69.41v3l4.56,1.78v-3.3Zm0-56.16v2.87l4.56-2V27.89Zm0-5.08V28l4.56-2.39V22.46Zm0,25.43v3l4.56-.66V49.64Zm0-15.27V38.3l4.56-1.7V33.32Zm0,10.18v3l4.56-1V44.2Zm0-5.09v3l4.56-1.35V38.76Zm0,20.39v3l4.56,0v-3.4Z"/>
<path class="cls-6" d="M216.39,96.85l-14.88,7.32V0l14.88,11.74Zm16-66.54L220,22v73.2l12.33-6.08Z"/>
<path class="cls-7" d="M210.78,20.08V17l4.41,3v2.78ZM208.52,47V43.52l-5.73-1.69v3.9Zm0-22.63v-3.3l-5.73-3.44v3.73Zm0,39.57V60.41L202.79,60v4Zm0-5.65V54.77L202.79,54V57.9Zm0-28.26V26.67l-5.73-3v3.78Zm0,5.66v-3.4l-5.73-2.56v3.83Zm0,5.66V37.9l-5.73-2.13v3.87Zm0,11.3v-3.5l-5.73-1.25v3.93Zm0,33.82V83l-5.73,1.36v3.9Zm-5.73,7.86,5.73-2.24V88.65l-5.73,1.8Zm5.73-19.11v-3.5l-5.73.48v4Zm0,5.63V77.35l-5.73.93V82.2Zm0-11.26V66.06l-5.73.06v3.95Zm6.67-21.09v-3l-4.41-1.31v3.36Zm0,10.27V55.7l-4.41-.63v3.4Zm-6.67-40.07V15.45l-5.73-3.87v3.67Zm6.67,24.65v-3l-4.41-1.64V42Zm0-15.45V25.05l-4.41-2.65v3.18Zm0,5.15V30.15l-4.41-2.32v3.24Zm0,5.16v-3l-4.41-2v3.28Zm0,15.43V50.58l-4.41-1V53Zm0,30.76v-3l-4.41,1.05v3.35Zm0-5.11v-3l-4.41.71v3.38Zm-4.41,12,4.41-1.73v-3l-4.41,1.38Zm4.41-17.07v-3l-4.41.37v3.39Zm0-10.26V60.83l-4.41-.3v3.41Zm0,5.14V66l-4.41,0v3.41Zm8.71,5.57v4.74l1.25-.34V74.42Zm-1-27.45-1.24-.37v5l1.24.23Zm1,14.14v4.23l1.25,0V61.39Zm0-6.64v4.26l1.25.09V54.89ZM221.67,75v5l1.24-.33V74.78Zm3.48-27.15-1.25-.37v4.77l1.25.23Zm-3.48,6.43v4.49l1.24.09V54.49Zm0,13.77v4.5l1.24-.19V68Zm0-6.87v4.46l1.24,0V61.24Zm2.23,6.77v4.27l1.25-.2V67.87Zm6.82-18.46-4.21-1.26v4.51l4.21.79Zm-4.21,5.65v4l4.21.3V55.89Zm0,19.09v4.48l4.21-1.13v-4Zm0-6.4v4l4.21-.66V67.63Zm0-6.34v4l4.21-.17V61.77Zm4.21-18.82-4.21-1.82v4.3l4.21,1.39Zm-7.81-3.33-1.24-.54v4.72l1.24.41Zm2.24.95-1.25-.54v4.52l1.25.41Z"/>
<path class="cls-8" d="M177.55,58.14v4.91h-1.1V58.29Zm0-7.55-1.1.28V56l1.1-.14ZM170.68,59v4.1h3.8V58.5Zm3.8-7.65-3.8,1v4.47l3.8-.49Zm-3.8,14v4.49l3.8.46v-5Zm7.89,0v5.39l2,.24V65.33Zm-2.12,0v5.16l1.1.13V65.32ZM178.57,58v5h2V57.77Zm2-8.19-2,.51v5.37l2-.25Zm-3,24.72-1.1-.18V79.5l1.1.32Zm-1.1,7.26V86.5l1.1.46V82.14Zm-2-7.79-3.8-.63v4.45l3.8,1.11Zm-3.8,6.09v4l3.8,1.59V81.23Zm7.89,2.34v4.92l2,.83V83.05Zm2-7.38-2-.33v5.36l2,.58ZM174.48,43l-3.8,1.55v4.25l3.8-1.12Zm3.07-1.22-1.1.45v4.85l1.1-.33Zm3-1.22-2,.82v5.05l2-.59Z"/>
</g>
</g>
</svg>
